<svg width="16" height="16" viewBox="0 0 16 16" fill="none" xmlns="http://www.w3.org/2000/svg">
<path d="M12.5002 6.5H9.31268L12.8296 9.625C12.9056 9.6921 12.9595 9.78076 12.984 9.8792C13.0085 9.97764 13.0025 10.0812 12.9668 10.1762C12.931 10.2711 12.8673 10.3529 12.7839 10.4108C12.7006 10.4686 12.6016 10.4997 12.5002 10.5H8.50018V14.5C8.50026 14.5989 8.47098 14.6957 8.41604 14.778C8.36111 14.8603 8.28299 14.9244 8.19158 14.9623C8.10016 15.0002 7.99957 15.0101 7.90253 14.9908C7.80549 14.9714 7.71636 14.9238 7.64643 14.8538L3.14643 10.3538C3.10001 10.3073 3.06321 10.2521 3.03811 10.1914C3.01302 10.1307 3.00013 10.0657 3.00018 10V6C3.00018 5.86739 3.05286 5.74022 3.14663 5.64645C3.2404 5.55268 3.36757 5.5 3.50018 5.5H6.68768L3.16831 2.375C3.09206 2.30776 3.03812 2.21888 3.01369 2.1202C2.98925 2.02152 2.99547 1.91774 3.03152 1.82268C3.06757 1.72763 3.13174 1.64583 3.21547 1.58818C3.29921 1.53052 3.39852 1.49977 3.50018 1.5H12.5002C12.6328 1.5 12.76 1.55268 12.8537 1.64645C12.9475 1.74022 13.0002 1.86739 13.0002 2V6C13.0002 6.13261 12.9475 6.25979 12.8537 6.35355C12.76 6.44732 12.6328 6.5 12.5002 6.5Z" fill="#525866"/>
</svg>
